<svg id="visual" viewBox="0 0 900 675" width="900" height="675" xmlns="http://www.w3.org/2000/svg" xmlns:xlink="http://www.w3.org/1999/xlink" version="1.1"><g stroke-width="1" stroke-linejoin="bevel"><path d="M472 307.3L533 355.7L579 305.3Z" fill="#cfa000" stroke="#cfa000"></path><path d="M579 305.3L487 202.9L472 307.3Z" fill="#efbc00" stroke="#efbc00"></path><path d="M418 452.1L575 422.7L533 355.7Z" fill="#f7c300" stroke="#f7c300"></path><path d="M533 355.7L575 422.7L579 305.3Z" fill="#cfa000" stroke="#cfa000"></path><path d="M487 202.9L392 264.3L472 307.3Z" fill="#a87f00" stroke="#a87f00"></path><path d="M472 307.3L401 377.7L533 355.7Z" fill="#b78c00" stroke="#b78c00"></path><path d="M579 305.3L583 174.9L487 202.9Z" fill="#a87f00" stroke="#a87f00"></path><path d="M392 264.3L401 377.7L472 307.3Z" fill="#bf9300" stroke="#bf9300"></path><path d="M583 174.9L502 133.4L487 202.9Z" fill="#cfa000" stroke="#cfa000"></path><path d="M487 202.9L365 178.9L392 264.3Z" fill="#b08500" stroke="#b08500"></path><path d="M625 444.1L697 316.3L579 305.3Z" fill="#d7a700" stroke="#d7a700"></path><path d="M579 305.3L697 316.3L583 174.9Z" fill="#a87f00" stroke="#a87f00"></path><path d="M566 547.6L625 444.1L575 422.7Z" fill="#cfa000" stroke="#cfa000"></path><path d="M575 422.7L625 444.1L579 305.3Z" fill="#bf9300" stroke="#bf9300"></path><path d="M401 377.7L418 452.1L533 355.7Z" fill="#b08500" stroke="#b08500"></path><path d="M734 183.9L618 123.4L583 174.9Z" fill="#d7a700" stroke="#d7a700"></path><path d="M583 174.9L618 123.4L502 133.4Z" fill="#dfae00" stroke="#dfae00"></path><path d="M411 99.4L365 178.9L487 202.9Z" fill="#a87f00" stroke="#a87f00"></path><path d="M392 264.3L312 362.7L401 377.7Z" fill="#b78c00" stroke="#b78c00"></path><path d="M418 452.1L510 517.1L575 422.7Z" fill="#b78c00" stroke="#b78c00"></path><path d="M303 280.3L312 362.7L392 264.3Z" fill="#dfae00" stroke="#dfae00"></path><path d="M401 377.7L304 446.1L418 452.1Z" fill="#dfae00" stroke="#dfae00"></path><path d="M365 178.9L303 280.3L392 264.3Z" fill="#e7b500" stroke="#e7b500"></path><path d="M711 503.1L718 420.7L625 444.1Z" fill="#f7c300" stroke="#f7c300"></path><path d="M625 444.1L718 420.7L697 316.3Z" fill="#dfae00" stroke="#dfae00"></path><path d="M498 0L411 99.4L502 133.4Z" fill="#f7c300" stroke="#f7c300"></path><path d="M502 133.4L411 99.4L487 202.9Z" fill="#d7a700" stroke="#d7a700"></path><path d="M365 178.9L277 155.9L303 280.3Z" fill="#b08500" stroke="#b08500"></path><path d="M697 316.3L734 183.9L583 174.9Z" fill="#a87f00" stroke="#a87f00"></path><path d="M761 223.9L734 183.9L697 316.3Z" fill="#e7b500" stroke="#e7b500"></path><path d="M510 517.1L566 547.6L575 422.7Z" fill="#f7c300" stroke="#f7c300"></path><path d="M776 301.3L761 223.9L697 316.3Z" fill="#a87f00" stroke="#a87f00"></path><path d="M718 420.7L776 301.3L697 316.3Z" fill="#d7a700" stroke="#d7a700"></path><path d="M178 411.7L304 446.1L312 362.7Z" fill="#d7a700" stroke="#d7a700"></path><path d="M312 362.7L304 446.1L401 377.7Z" fill="#d7a700" stroke="#d7a700"></path><path d="M376 548.6L527 566.6L510 517.1Z" fill="#b08500" stroke="#b08500"></path><path d="M510 517.1L527 566.6L566 547.6Z" fill="#e7b500" stroke="#e7b500"></path><path d="M376 548.6L510 517.1L418 452.1Z" fill="#c79900" stroke="#c79900"></path><path d="M566 547.6L711 503.1L625 444.1Z" fill="#bf9300" stroke="#bf9300"></path><path d="M718 420.7L832 395.7L776 301.3Z" fill="#d7a700" stroke="#d7a700"></path><path d="M770 507.1L711 503.1L718 604.6Z" fill="#bf9300" stroke="#bf9300"></path><path d="M304 446.1L376 548.6L418 452.1Z" fill="#d7a700" stroke="#d7a700"></path><path d="M274 132.4L277 155.9L365 178.9Z" fill="#c79900" stroke="#c79900"></path><path d="M303 280.3L177 324.3L312 362.7Z" fill="#d7a700" stroke="#d7a700"></path><path d="M774 108.4L734 183.9L761 223.9Z" fill="#efbc00" stroke="#efbc00"></path><path d="M774 108.4L736 91.4L734 183.9Z" fill="#b78c00" stroke="#b78c00"></path><path d="M734 183.9L736 91.4L618 123.4Z" fill="#b78c00" stroke="#b78c00"></path><path d="M618 123.4L498 0L502 133.4Z" fill="#c79900" stroke="#c79900"></path><path d="M411 99.4L274 132.4L365 178.9Z" fill="#d7a700" stroke="#d7a700"></path><path d="M171 158.9L177 324.3L303 280.3Z" fill="#a87f00" stroke="#a87f00"></path><path d="M624 0L498 0L618 123.4Z" fill="#dfae00" stroke="#dfae00"></path><path d="M411 99.4L300 0L274 132.4Z" fill="#d7a700" stroke="#d7a700"></path><path d="M900 203.9L774 108.4L761 223.9Z" fill="#a87f00" stroke="#a87f00"></path><path d="M681 0L624 0L618 123.4Z" fill="#f7c300" stroke="#f7c300"></path><path d="M681 0L618 123.4L736 91.4Z" fill="#bf9300" stroke="#bf9300"></path><path d="M718 604.6L711 503.1L566 547.6Z" fill="#b08500" stroke="#b08500"></path><path d="M711 503.1L770 507.1L718 420.7Z" fill="#f7c300" stroke="#f7c300"></path><path d="M498 0L424 0L411 99.4Z" fill="#efbc00" stroke="#efbc00"></path><path d="M770 507.1L832 395.7L718 420.7Z" fill="#a87f00" stroke="#a87f00"></path><path d="M776 301.3L900 285.3L761 223.9Z" fill="#c79900" stroke="#c79900"></path><path d="M817 0L681 0L736 91.4Z" fill="#b08500" stroke="#b08500"></path><path d="M171 158.9L303 280.3L277 155.9Z" fill="#bf9300" stroke="#bf9300"></path><path d="M304 446.1L276 597.6L376 548.6Z" fill="#dfae00" stroke="#dfae00"></path><path d="M587 675L718 604.6L566 547.6Z" fill="#efbc00" stroke="#efbc00"></path><path d="M900 413.7L900 285.3L832 395.7Z" fill="#a87f00" stroke="#a87f00"></path><path d="M587 675L566 547.6L527 566.6Z" fill="#bf9300" stroke="#bf9300"></path><path d="M177 324.3L178 411.7L312 362.7Z" fill="#cfa000" stroke="#cfa000"></path><path d="M178 411.7L191 454.1L304 446.1Z" fill="#cfa000" stroke="#cfa000"></path><path d="M425 675L527 566.6L376 548.6Z" fill="#e7b500" stroke="#e7b500"></path><path d="M425 675L511 675L527 566.6Z" fill="#f7c300" stroke="#f7c300"></path><path d="M900 413.7L832 395.7L900 453.1Z" fill="#bf9300" stroke="#bf9300"></path><path d="M832 395.7L900 285.3L776 301.3Z" fill="#cfa000" stroke="#cfa000"></path><path d="M300 0L199 116.4L274 132.4Z" fill="#bf9300" stroke="#bf9300"></path><path d="M274 132.4L199 116.4L277 155.9Z" fill="#b78c00" stroke="#b78c00"></path><path d="M424 0L300 0L411 99.4Z" fill="#efbc00" stroke="#efbc00"></path><path d="M511 675L587 675L527 566.6Z" fill="#c79900" stroke="#c79900"></path><path d="M199 116.4L171 158.9L277 155.9Z" fill="#f7c300" stroke="#f7c300"></path><path d="M177 324.3L95 369.7L178 411.7Z" fill="#e7b500" stroke="#e7b500"></path><path d="M782 675L765 604.6L718 604.6Z" fill="#b08500" stroke="#b08500"></path><path d="M718 604.6L765 604.6L770 507.1Z" fill="#c79900" stroke="#c79900"></path><path d="M289 675L425 675L376 548.6Z" fill="#bf9300" stroke="#bf9300"></path><path d="M185 566.6L276 597.6L304 446.1Z" fill="#cfa000" stroke="#cfa000"></path><path d="M900 285.3L900 203.9L761 223.9Z" fill="#cfa000" stroke="#cfa000"></path><path d="M774 108.4L817 0L736 91.4Z" fill="#d7a700" stroke="#d7a700"></path><path d="M900 453.1L832 395.7L770 507.1Z" fill="#a87f00" stroke="#a87f00"></path><path d="M900 560.6L900 453.1L770 507.1Z" fill="#efbc00" stroke="#efbc00"></path><path d="M587 675L685 675L718 604.6Z" fill="#e7b500" stroke="#e7b500"></path><path d="M900 79.4L817 0L774 108.4Z" fill="#bf9300" stroke="#bf9300"></path><path d="M183 0L139 119.4L199 116.4Z" fill="#b78c00" stroke="#b78c00"></path><path d="M199 116.4L139 119.4L171 158.9Z" fill="#efbc00" stroke="#efbc00"></path><path d="M82 316.3L95 369.7L177 324.3Z" fill="#bf9300" stroke="#bf9300"></path><path d="M78 498.1L185 566.6L191 454.1Z" fill="#e7b500" stroke="#e7b500"></path><path d="M191 454.1L185 566.6L304 446.1Z" fill="#dfae00" stroke="#dfae00"></path><path d="M276 597.6L289 675L376 548.6Z" fill="#f7c300" stroke="#f7c300"></path><path d="M78 498.1L191 454.1L178 411.7Z" fill="#c79900" stroke="#c79900"></path><path d="M82 316.3L177 324.3L78 194.9Z" fill="#bf9300" stroke="#bf9300"></path><path d="M900 203.9L900 79.4L774 108.4Z" fill="#c79900" stroke="#c79900"></path><path d="M217 675L289 675L276 597.6Z" fill="#bf9300" stroke="#bf9300"></path><path d="M78 194.9L177 324.3L171 158.9Z" fill="#b78c00" stroke="#b78c00"></path><path d="M685 675L782 675L718 604.6Z" fill="#efbc00" stroke="#efbc00"></path><path d="M765 604.6L900 560.6L770 507.1Z" fill="#f7c300" stroke="#f7c300"></path><path d="M900 675L900 560.6L765 604.6Z" fill="#f7c300" stroke="#f7c300"></path><path d="M300 0L183 0L199 116.4Z" fill="#e7b500" stroke="#e7b500"></path><path d="M0 163.9L78 194.9L0 133.4Z" fill="#efbc00" stroke="#efbc00"></path><path d="M139 119.4L78 194.9L171 158.9Z" fill="#dfae00" stroke="#dfae00"></path><path d="M900 79.4L900 0L817 0Z" fill="#f7c300" stroke="#f7c300"></path><path d="M185 566.6L217 675L276 597.6Z" fill="#efbc00" stroke="#efbc00"></path><path d="M108 613.6L217 675L185 566.6Z" fill="#c79900" stroke="#c79900"></path><path d="M0 378.7L78 498.1L95 369.7Z" fill="#b78c00" stroke="#b78c00"></path><path d="M95 369.7L78 498.1L178 411.7Z" fill="#b78c00" stroke="#b78c00"></path><path d="M0 378.7L95 369.7L82 316.3Z" fill="#c79900" stroke="#c79900"></path><path d="M183 0L115 0L139 119.4Z" fill="#e7b500" stroke="#e7b500"></path><path d="M78 498.1L108 613.6L185 566.6Z" fill="#d7a700" stroke="#d7a700"></path><path d="M0 163.9L0 262.3L78 194.9Z" fill="#b08500" stroke="#b08500"></path><path d="M78 194.9L0 262.3L82 316.3Z" fill="#b78c00" stroke="#b78c00"></path><path d="M78 498.1L0 597.6L108 613.6Z" fill="#d7a700" stroke="#d7a700"></path><path d="M782 675L900 675L765 604.6Z" fill="#a87f00" stroke="#a87f00"></path><path d="M0 262.3L0 378.7L82 316.3Z" fill="#b08500" stroke="#b08500"></path><path d="M0 133.4L78 194.9L139 119.4Z" fill="#f7c300" stroke="#f7c300"></path><path d="M115 0L0 133.4L139 119.4Z" fill="#cfa000" stroke="#cfa000"></path><path d="M0 378.7L0 515.1L78 498.1Z" fill="#d7a700" stroke="#d7a700"></path><path d="M108 613.6L75 675L217 675Z" fill="#c79900" stroke="#c79900"></path><path d="M0 597.6L75 675L108 613.6Z" fill="#efbc00" stroke="#efbc00"></path><path d="M0 515.1L0 597.6L78 498.1Z" fill="#cfa000" stroke="#cfa000"></path><path d="M115 0L0 0L0 133.4Z" fill="#dfae00" stroke="#dfae00"></path><path d="M0 597.6L0 675L75 675Z" fill="#b78c00" stroke="#b78c00"></path></g></svg>