<svg id="visual" viewBox="0 0 900 600" width="900" height="600" xmlns="http://www.w3.org/2000/svg" xmlns:xlink="http://www.w3.org/1999/xlink" version="1.1"><path d="M0 61L75 61L75 43L150 43L150 61L225 61L225 61L300 61L300 25L375 25L375 31L450 31L450 61L525 61L525 25L600 25L600 61L675 61L675 67L750 67L750 43L825 43L825 31L900 31L900 61L900 0L900 0L825 0L825 0L750 0L750 0L675 0L675 0L600 0L600 0L525 0L525 0L450 0L450 0L375 0L375 0L300 0L300 0L225 0L225 0L150 0L150 0L75 0L75 0L0 0Z" fill="#3ebbe4"></path><path d="M0 163L75 163L75 163L150 163L150 235L225 235L225 241L300 241L300 211L375 211L375 121L450 121L450 217L525 217L525 169L600 169L600 199L675 199L675 187L750 187L750 157L825 157L825 175L900 175L900 187L900 59L900 29L825 29L825 41L750 41L750 65L675 65L675 59L600 59L600 23L525 23L525 59L450 59L450 29L375 29L375 23L300 23L300 59L225 59L225 59L150 59L150 41L75 41L75 59L0 59Z" fill="#8cd0ed"></path><path d="M0 229L75 229L75 205L150 205L150 295L225 295L225 307L300 307L300 241L375 241L375 169L450 169L450 277L525 277L525 211L600 211L600 241L675 241L675 259L750 259L750 211L825 211L825 211L900 211L900 229L900 185L900 173L825 173L825 155L750 155L750 185L675 185L675 197L600 197L600 167L525 167L525 215L450 215L450 119L375 119L375 209L300 209L300 239L225 239L225 233L150 233L150 161L75 161L75 161L0 161Z" fill="#c3e5f5"></path><path d="M0 367L75 367L75 337L150 337L150 373L225 373L225 397L300 397L300 343L375 343L375 349L450 349L450 367L525 367L525 319L600 319L600 379L675 379L675 385L750 385L750 409L825 409L825 343L900 343L900 373L900 227L900 209L825 209L825 209L750 209L750 257L675 257L675 239L600 239L600 209L525 209L525 275L450 275L450 167L375 167L375 239L300 239L300 305L225 305L225 293L150 293L150 203L75 203L75 227L0 227Z" fill="#f5fbfd"></path><path d="M0 445L75 445L75 445L150 445L150 463L225 463L225 457L300 457L300 427L375 427L375 433L450 433L450 445L525 445L525 433L600 433L600 427L675 427L675 463L750 463L750 463L825 463L825 409L900 409L900 457L900 371L900 341L825 341L825 407L750 407L750 383L675 383L675 377L600 377L600 317L525 317L525 365L450 365L450 347L375 347L375 341L300 341L300 395L225 395L225 371L150 371L150 335L75 335L75 365L0 365Z" fill="#ffffff"></path><path d="M0 499L75 499L75 499L150 499L150 523L225 523L225 517L300 517L300 475L375 475L375 511L450 511L450 487L525 487L525 475L600 475L600 499L675 499L675 523L750 523L750 499L825 499L825 475L900 475L900 493L900 455L900 407L825 407L825 461L750 461L750 461L675 461L675 425L600 425L600 431L525 431L525 443L450 443L450 431L375 431L375 425L300 425L300 455L225 455L225 461L150 461L150 443L75 443L75 443L0 443Z" fill="#f5fbfd"></path><path d="M0 523L75 523L75 529L150 529L150 547L225 547L225 535L300 535L300 511L375 511L375 535L450 535L450 517L525 517L525 517L600 517L600 529L675 529L675 541L750 541L750 523L825 523L825 517L900 517L900 517L900 491L900 473L825 473L825 497L750 497L750 521L675 521L675 497L600 497L600 473L525 473L525 485L450 485L450 509L375 509L375 473L300 473L300 515L225 515L225 521L150 521L150 497L75 497L75 497L0 497Z" fill="#c3e5f5"></path><path d="M0 565L75 565L75 571L150 571L150 571L225 571L225 565L300 565L300 559L375 559L375 571L450 571L450 565L525 565L525 547L600 547L600 553L675 553L675 565L750 565L750 571L825 571L825 553L900 553L900 547L900 515L900 515L825 515L825 521L750 521L750 539L675 539L675 527L600 527L600 515L525 515L525 515L450 515L450 533L375 533L375 509L300 509L300 533L225 533L225 545L150 545L150 527L75 527L75 521L0 521Z" fill="#8cd0ed"></path><path d="M0 601L75 601L75 601L150 601L150 601L225 601L225 601L300 601L300 601L375 601L375 601L450 601L450 601L525 601L525 601L600 601L600 601L675 601L675 601L750 601L750 601L825 601L825 601L900 601L900 601L900 545L900 551L825 551L825 569L750 569L750 563L675 563L675 551L600 551L600 545L525 545L525 563L450 563L450 569L375 569L375 557L300 557L300 563L225 563L225 569L150 569L150 569L75 569L75 563L0 563Z" fill="#3ebbe4"></path></svg>